<svg xmlns="http://www.w3.org/2000/svg" viewBox="0 0 148.86 156.13"><defs><style>.cls-1{fill:#fff;}</style></defs><g id="Calque_2" data-name="Calque 2"><g id="Calque_2-2" data-name="Calque 2"><path class="cls-1" d="M128.5,22a.88.88,0,0,0-.05-.15,1.67,1.67,0,0,0-.08-.3,1.76,1.76,0,0,0-.09-.2,2.1,2.1,0,0,0-.13-.26l-.13-.18-.19-.23-.16-.15-.24-.18-.11-.09-.08,0-.08-.06C125.76,19.44,92.76,2.87,68,0a2.23,2.23,0,0,0-.37,0C66.42,0,37.49,1.37,7.79,34.91h0c-.06.07-.1.14-.15.21a2.47,2.47,0,0,0-.46,1.13h0C4,62.43,6.7,86.84,8.31,101.42c.32,2.87.59,5.35.75,7.25a2.51,2.51,0,0,0,1.47,2.08c35.92,16.06,65.76,19,67,19.13h.24a2.59,2.59,0,0,0,.55-.07h.06c21.46-5.54,30.5-10.12,41-15.42,4-2,8.18-4.15,13.37-6.48a2.53,2.53,0,0,0,1.47-2.16C136.08,69,128.57,22.44,128.5,22ZM67.64,5c18.09,2.14,41.47,12.2,51.86,17a248.63,248.63,0,0,0-46,23.24c-25.63-5-49.18-8.88-58.82-10.44C40.62,7.49,65.42,5.16,67.64,5ZM13.91,106.78c-.16-1.7-.38-3.69-.63-5.91C11.75,87,9.22,64.07,11.85,39.44,19.69,40.7,44.4,44.74,71.63,50c.55,8.26,2.7,41.87,3.58,74.54A240.14,240.14,0,0,1,13.91,106.78ZM129.28,104c-4.65,2.13-8.47,4.07-12.18,6-9.69,4.91-18.14,9.19-36.9,14.23-.9-33.34-3.12-67.57-3.61-75A241.59,241.59,0,0,1,124,25.71C125.58,36.27,130.63,73.33,129.28,104Z"/><path class="cls-1" d="M20.45,75.79c1.27.63,2.14,1.07,8.84-4.77,1.58,1.64,3.45,3.54,5.64,5.76a2.49,2.49,0,0,0,1.78.75,2.47,2.47,0,0,0,1.76-.73,2.5,2.5,0,0,0,0-3.53c-1.82-1.85-3.71-3.78-5.47-5.61.88-.8,1.83-1.68,2.84-2.64a2.5,2.5,0,1,0-3.42-3.64c-.92.86-1.89,1.76-2.87,2.64a63.09,63.09,0,0,1-4.32-4.9,2.15,2.15,0,0,0-2-1.6,2.47,2.47,0,0,0-1.84.56,2.51,2.51,0,0,0-.92,1.65v0h0v0L19,73.09A2.66,2.66,0,0,0,20.45,75.79Zm5-15.51h0a4.31,4.31,0,0,0-.14-1.13A2.22,2.22,0,0,1,25.44,60.28Zm-.65,6,1,1.11-1.26,1.08Z"/><path class="cls-1" d="M49.09,68.94c.66.41,2.4,1.78,4.67,3.65L49.1,77.25a2.5,2.5,0,1,0,3.54,3.53l5-5c1.94,1.63,4,3.39,6,5.1a2.47,2.47,0,0,0,1.63.61,2.53,2.53,0,0,0,1.9-.87,2.49,2.49,0,0,0-.26-3.52c-2.18-1.89-4-3.5-5.68-4.88l3.9-3.9a2.5,2.5,0,0,0-3.53-3.54L57.33,69c-6-4.93-6.65-4.94-7.42-4.94a2.5,2.5,0,0,0-.82,4.86Z"/><path class="cls-1" d="M65.72,91.52c-31.09,12.44-43.42-3.27-43.93-4a2.5,2.5,0,0,0-4,3c.43.59,8.21,10.77,26,10.77,6.55,0,14.45-1.39,23.85-5.15a2.5,2.5,0,0,0-1.86-4.64Z"/><path class="cls-1" d="M119.24,58.58l2.15-5.5a2.5,2.5,0,1,0-4.65-1.82l-1.63,4.17-4.4-3.35a2.5,2.5,0,0,0-3,4l5.53,4.21L111,65.83a2.5,2.5,0,0,0,1.42,3.24,2.44,2.44,0,0,0,.91.17,2.5,2.5,0,0,0,2.33-1.59l1.66-4.23,3.28,2.5a2.45,2.45,0,0,0,1.51.52A2.5,2.5,0,0,0,123.66,62Z"/><path class="cls-1" d="M90,77.5c.9-2.07,1.85-4.21,2.77-6.25l5.65,3.39a2.41,2.41,0,0,0,1.28.36A2.5,2.5,0,0,0,101,70.36l-6.13-3.68c1.32-2.84,2.36-5,2.74-5.55A2.5,2.5,0,0,0,94,57.73c-.25.25-.79.79-3.4,6.36L86,61.36a2.5,2.5,0,1,0-2.57,4.28l5,3c-.87,1.92-1.87,4.17-3,6.84a2.49,2.49,0,0,0,1.28,3.29,2.56,2.56,0,0,0,1,.21A2.5,2.5,0,0,0,90,77.5Z"/><path class="cls-1" d="M88.39,97.92a2.5,2.5,0,0,0,1.07,4.76,2.31,2.31,0,0,0,.37,0c.84-.12,1.34-.53,2.66-1.61a57.67,57.67,0,0,1,15.59-9.44c.47,2.82,1.54,6.54,4,8.28a5.39,5.39,0,0,0,3.15,1,6.48,6.48,0,0,0,2-.32c7-2.27,7.93-5.64,6.89-12.21l.63,0a2.5,2.5,0,1,0,0-5c-18.62.1-31.25,10.44-35.4,13.83C89,97.46,88.59,97.77,88.39,97.92Zm27.3-2.11c-.46.15-.6,0-.71,0-1-.71-1.75-3.39-2.08-5.8a46.54,46.54,0,0,1,6.22-1.26C120.11,94.36,119.31,94.64,115.69,95.81Z"/><path class="cls-1" d="M35.17,29.82l10.44-.36,2.56,5.66A2.5,2.5,0,0,0,51,36.53l9.22-2.07,7.49,5.38a2.49,2.49,0,0,0,2,.41L80,37.93a2.5,2.5,0,0,0-1.1-4.88L69.7,35.12l-7.49-5.37a2.48,2.48,0,0,0-2-.41l-8.32,1.87-2.41-5.33a2.48,2.48,0,0,0-2.36-1.47L35,24.82a2.5,2.5,0,1,0,.17,5Z"/><path class="cls-1" d="M56.71,19.13a1.66,1.66,0,0,0,.32,0l7.63-1C65.83,21.26,66.8,21.5,68,21.5a2.5,2.5,0,0,0,2.5-2.5A2.45,2.45,0,0,0,70,17.44l5.56-.71a2.5,2.5,0,1,0-.63-5l-6.65.85c-.31-1.19-.61-2.47-.87-3.65A2.5,2.5,0,0,0,62.49,10c.27,1.2.51,2.27.75,3.24l-6.84.88a2.5,2.5,0,0,0,.31,5Z"/><path class="cls-1" d="M82.87,26a2.53,2.53,0,0,0,.8-.13c1.74-.59,3.62-1.18,5.41-1.71l2.72,3.43a2.49,2.49,0,0,0,2,1A2.53,2.53,0,0,0,95.32,28a2.5,2.5,0,0,0,.4-3.51l-1.37-1.73a11.28,11.28,0,0,1,2.48-.37,2.5,2.5,0,0,0,.91-4.92c-1.29-.25-3.91.23-6.81,1l-2.77-3.5A2.5,2.5,0,1,0,84.24,18l1.5,1.88c-1.34.42-2.6.83-3.67,1.19a2.5,2.5,0,0,0,.8,4.87Z"/><path class="cls-1" d="M8.47,129.82l-3.71-1.24a.82.82,0,0,1-.56-.8l.73-7.13s-.06-4.88-1.64-5.42a1.76,1.76,0,0,0-1.58.18,1.9,1.9,0,0,0-.83,1.5L0,129.49A2.6,2.6,0,0,0,.4,131a2.47,2.47,0,0,0,.94.88l1.08,1.16,5.35,1a1.67,1.67,0,0,0,.53.08,1.74,1.74,0,0,0,1-.28,2,2,0,0,0,.83-1.55A2.55,2.55,0,0,0,8.47,129.82Z"/><path class="cls-1" d="M22.79,126.75a2.59,2.59,0,0,0-1.64-2.57,1.83,1.83,0,0,0-1.63.18,2,2,0,0,0-.84,1.51l-.46,5.47a1.06,1.06,0,0,1-.4.89,1.43,1.43,0,0,1-1.23,0,2.78,2.78,0,0,1-1.88-2.62l1.55-7.38,0-.14a2.62,2.62,0,0,0-1.66-2.58,1.82,1.82,0,0,0-1.61.18,1.94,1.94,0,0,0-.83,1.45l-1.37,6.53a7.41,7.41,0,0,0-.06,3.1,8,8,0,0,0,5,5.78,5.67,5.67,0,0,0,1.91.34,4.56,4.56,0,0,0,2.57-.75,4.81,4.81,0,0,0,2.07-3.94Z"/><path class="cls-1" d="M36.93,130a2.58,2.58,0,0,0-1.63-2.57,1.81,1.81,0,0,0-1.62.18,1.93,1.93,0,0,0-.81,1.32l-2.6,5.61-3-7.52,0-.59-.39-.12-.33-.43-.13,0-.14-.15-.6-.23a1.05,1.05,0,0,0-.24-.06h-.05l-.41-.16,0,0,0,0-.08.07L24,125l-.06.8-.19.17-.24-.06-2,12.69a2.58,2.58,0,0,0,1.64,2.57,1.79,1.79,0,0,0,1.61-.18,2,2,0,0,0,.83-1.42l.84-3.28,2.66,5.2v.06l.1.16,0,.46.2.07v.18l.44.15.14.16.67.3.28.07.2,0h0l.39,0h.06l.14,0h0l.77.27.06-.85.23-.16v-.12l.09-.08v-.1l0-.05.1-.61,3.84-11.24Z"/><path class="cls-1" d="M55.38,141.54a4.86,4.86,0,0,1,2.39,1.94,2.29,2.29,0,0,0,1.53,1,1.74,1.74,0,0,0,1.39-.38,2.27,2.27,0,0,0,.23-3,9.68,9.68,0,0,0-4.72-3.8c-2.72-.94-4.83-.93-6.28,0a4.9,4.9,0,0,0-2,4,10.28,10.28,0,0,0,.07,1.92l-3.58-12.12c-.26-.74-1.08-1.14-2.41-1.59l-.16-.06a1.79,1.79,0,0,0-2.12.85L33.88,141a2.47,2.47,0,0,0,.56,2.93,2.13,2.13,0,0,0,.79.49,1.77,1.77,0,0,0,2.1-.7l2-2.05,3,.73,2.83,5.19a2.32,2.32,0,0,0,2.08,1.59,1.55,1.55,0,0,0,.37,0,1.72,1.72,0,0,0,1.16-.82,2.25,2.25,0,0,0,.21-1.68A10.2,10.2,0,0,0,54.6,152h0a6.65,6.65,0,0,0,2.21.39,5.91,5.91,0,0,0,3.27-1,2.25,2.25,0,0,0,.45-3,2.38,2.38,0,0,0-1.5-1.14,1.77,1.77,0,0,0-1.37.26,2.48,2.48,0,0,1-2.24.19A5.78,5.78,0,0,1,52,142.17c0-.33.1-.92.38-1.11C52.94,140.7,54.65,141.29,55.38,141.54Zm-13.83-3.29-1-.35.58-1.05Z"/><path class="cls-1" d="M71.72,139a1.71,1.71,0,0,0-1.34.51l-3.13,3.15L63.66,136a2.14,2.14,0,0,0-2.77-1.19,2.17,2.17,0,0,0-.74,3l4.64,8.69-.44,7A2.54,2.54,0,0,0,66,156a2,2,0,0,0,.63.11,1.74,1.74,0,0,0,1-.29,2,2,0,0,0,.83-1.51l.43-6.94,4.48-4.48h0a2.38,2.38,0,0,0,0-3A2.23,2.23,0,0,0,71.72,139Z"/><path class="cls-1" d="M93.18,144.18a7.14,7.14,0,0,0,2.25-5,3.8,3.8,0,0,0-1.71-3.16,4.75,4.75,0,0,0-4.38-.17L84,138.09v.24a2.74,2.74,0,0,0-1.1,2.15l.47,11.88a1.69,1.69,0,0,0,.76,1.4,1.78,1.78,0,0,0,1,.28,2.45,2.45,0,0,0,.9-.18,2.85,2.85,0,0,0,1.8-2.58l-.16-4,1.34-.55,5.75,6.42a1.88,1.88,0,0,0,2.26.45,3,3,0,0,0,.86-.56,2.3,2.3,0,0,0,.53-3.12Zm-3.76-2-2,.8-.08-1.83,2.8-1.15a.69.69,0,0,1,.63,0,.41.41,0,0,1,.17.35A2.65,2.65,0,0,1,89.42,142.14Z"/><path class="cls-1" d="M105,134.9a2.92,2.92,0,0,0,1.82-2.6,1.73,1.73,0,0,0-.78-1.41,2,2,0,0,0-1.82-.12l-7.12,1.93-.12,0a2.88,2.88,0,0,0-1.79,2.69l1.46,10.9a1.69,1.69,0,0,0,.77,1.4,1.79,1.79,0,0,0,1,.27,2.42,2.42,0,0,0,.82-.15l4.1-.93.16,0a2.9,2.9,0,0,0,1.82-2.58,1.73,1.73,0,0,0-.78-1.4,2,2,0,0,0-1.85-.11l-2.64,1-.07-1.69,4.29-2.12a2.9,2.9,0,0,0,1.82-2.58,1.75,1.75,0,0,0-.78-1.41,2.07,2.07,0,0,0-2-.06l-3.55,1.75-.06-1.44,5.14-1.25Z"/><path class="cls-1" d="M121.19,134.07a2.52,2.52,0,0,0-3,1,8,8,0,0,1-3.21,2.49,3.6,3.6,0,0,1-3.27,0,2.08,2.08,0,0,1-.91-1.79,5.4,5.4,0,0,1,3.56-5.1,4.08,4.08,0,0,1,2.9-.25,2.59,2.59,0,0,0,2.94-1.14,2.34,2.34,0,0,0,.4-2,1.7,1.7,0,0,0-1-1.06,8.23,8.23,0,0,0-6.08.35c-4.62,1.89-7.38,5.84-7.2,10.29a5.5,5.5,0,0,0,2.47,4.62,6.25,6.25,0,0,0,3.41.93,9.69,9.69,0,0,0,3.63-.76,14.38,14.38,0,0,0,5.71-4.44,2.48,2.48,0,0,0,.52-2A1.71,1.71,0,0,0,121.19,134.07Z"/><path class="cls-1" d="M147.6,120.65a4.3,4.3,0,0,0-3.71-.75,12.46,12.46,0,0,0-1.66.49l-.28.1a4.46,4.46,0,0,1-1.59.41.21.21,0,0,1-.13-.06l0-.1a3.16,3.16,0,0,1,1.51-1.73c.84-.46,3,.19,3.7.41l.14,0a2.71,2.71,0,0,0,2.85-1.35,2.22,2.22,0,0,0,.25-2,1.7,1.7,0,0,0-1.1-1c-2.15-.6-5.14-1.09-7.21,0a9.14,9.14,0,0,0-4.5,5.49,3.93,3.93,0,0,0,.44,3.07,3.51,3.51,0,0,0,2.3,1.54,7.48,7.48,0,0,0,4-.63,7.1,7.1,0,0,1,1.22-.39.81.81,0,0,1,.54,0s0,.09,0,.11c0,.4-.66,1.18-1.61,1.7s-3.27,0-4.11-.56a2.4,2.4,0,0,0-3,.79,2.8,2.8,0,0,0-.57,1.21,7.48,7.48,0,0,0,0-1.06c-.07-1.87-.38-4.51-2.27-5.78-1.45-1-3.48-1-6.22,0l-2.37,1.38a2.85,2.85,0,0,0-1.74,2.55l.46,11.87a1.73,1.73,0,0,0,.76,1.41,1.76,1.76,0,0,0,1,.29,2.26,2.26,0,0,0,.83-.16l2.32-1.25c4.1-1.68,6.73-5,7.16-8.79,0,.09,0,.18,0,.26a1.7,1.7,0,0,0,.76,1.16,10.34,10.34,0,0,0,5.06,1.41,5.8,5.8,0,0,0,2.22-.4,11.05,11.05,0,0,0,1.12-.52c2.28-1.25,4.61-3.69,4.68-6.35h0A3.54,3.54,0,0,0,147.6,120.65Zm-20.56,12-.73.28-.3-7.56,1.37-.57a1.71,1.71,0,0,1,1.65.05,4.87,4.87,0,0,1,1.55,3.71C130.66,130.59,129.86,131.51,127,132.67Z"/></g></g></svg>